<svg xmlns="http://www.w3.org/2000/svg" width="2000" height="1125" viewBox="0 0 2000 1125" version="1.1"><path d="M 454.763 243.570 C 454.612 243.721, 451.417 243.956, 447.663 244.092 C 433.911 244.590, 421.298 247.805, 408.435 254.089 C 387.893 264.125, 375.604 278.069, 371.056 296.500 C 367.295 311.747, 369.572 332.728, 376.999 351.239 C 380.199 359.214, 392.649 381.973, 402.033 397 C 402.549 397.825, 403.628 399.850, 404.432 401.500 C 407.776 408.363, 407.766 408.359, 422.249 408.601 C 448.131 409.034, 618.934 409.909, 712.912 410.090 L 808.324 410.275 809.998 407.887 C 812.499 404.321, 902.828 247.560, 903.189 246.160 C 903.430 245.225, 868.408 244.840, 747 244.445 C 660.925 244.164, 560.021 243.791, 522.768 243.616 C 485.516 243.440, 454.914 243.420, 454.763 243.570 M 336.648 462.685 C 336.547 462.786, 332.312 462.961, 327.238 463.072 C 299.798 463.675, 277.307 472.043, 260.842 487.773 C 253.543 494.746, 249.939 500.187, 246.448 509.500 C 241.317 523.187, 242.600 550.100, 249.212 567.500 C 252.182 575.314, 256.447 583.683, 264.248 597 C 268.919 604.975, 273.600 613.075, 274.650 615 C 276.750 618.852, 287.568 637.614, 289.064 640 C 289.582 640.825, 290.438 642.501, 290.968 643.724 C 291.497 644.947, 296.597 653.722, 302.301 663.224 C 308.005 672.726, 315.518 685.675, 318.997 692 C 322.477 698.325, 325.862 704.175, 326.520 705 C 327.178 705.825, 329.411 709.650, 331.481 713.500 C 334.676 719.442, 340.303 729.187, 348.227 742.500 C 349.209 744.150, 350.563 746.625, 351.236 748 C 351.909 749.375, 352.727 750.725, 353.054 751 C 353.650 751.502, 364.098 769.705, 369.699 780 C 371.345 783.025, 378.664 795.625, 385.963 808 C 393.263 820.375, 399.651 831.400, 400.160 832.500 C 400.669 833.600, 401.629 835.406, 402.293 836.514 C 406.323 843.239, 408.480 846.560, 409.102 847 C 409.492 847.275, 442.791 847.500, 483.100 847.500 L 556.391 847.500 603.695 765.546 C 629.713 720.471, 651 683.233, 651 682.796 C 651 682.358, 634.462 682, 614.250 682 C 594.038 682.001, 548.925 681.791, 514 681.534 C 479.075 681.278, 434.011 681.053, 413.859 681.034 L 377.217 681 375.477 676.750 C 374.520 674.413, 373.517 669.314, 373.248 665.421 C 372.363 652.607, 377.061 642.219, 387.146 634.688 C 396.103 628, 383.450 628.514, 539.729 628.491 C 664.228 628.473, 682.129 628.285, 683.328 626.985 C 685.225 624.928, 776.163 467.092, 776.755 464.829 C 777.212 463.083, 775.672 463, 742.867 462.995 C 723.965 462.993, 624.875 462.880, 522.667 462.745 C 420.458 462.610, 336.750 462.583, 336.648 462.685" stroke="none" fill="#fbe407" fill-rule="evenodd"/><path d="M 933 447.500 L 933 551 1003 551 L 1073 551 1073 535.509 L 1073 520.018 1020.250 519.759 L 967.500 519.500 967.236 486.750 L 966.973 454 1019.986 454 L 1073 454 1073 438 L 1073 422 1020 422 L 967 422 967 398.500 L 967 375 1020 375 L 1073 375 1073 359.500 L 1073 344 1003 344 L 933 344 933 447.500 M 1398.770 372.250 L 1398.500 393.500 1390.250 393.790 L 1382 394.081 1382 408.540 L 1382 423 1390.500 423 L 1399 423 1399 465.912 C 1399 513.406, 1399.570 519.578, 1404.970 530.576 C 1410.488 541.812, 1420.027 549.049, 1434 552.601 C 1444.132 555.176, 1472.592 553.387, 1482.750 549.537 C 1483.672 549.187, 1484 545.212, 1484 534.408 L 1484 519.752 1478.750 520.319 C 1475.862 520.630, 1471.039 521.586, 1468.032 522.443 C 1465.025 523.299, 1458.950 523.990, 1454.532 523.978 C 1443.492 523.948, 1439.429 522.012, 1435.495 514.909 L 1432.500 509.500 1432.201 466.250 L 1431.902 423 1457.951 423 L 1484 423 1484 408.500 L 1484 394 1458 394 L 1432 394 1432 372.500 L 1432 351 1415.520 351 L 1399.040 351 1398.770 372.250 M 1559 390.077 C 1532.186 392.440, 1509.985 408.035, 1499.097 432.154 C 1493.418 444.735, 1491.591 454.705, 1491.614 473 C 1491.629 484.839, 1492.111 491.569, 1493.319 496.824 C 1499.883 525.367, 1519.121 544.757, 1548 551.936 C 1559.960 554.909, 1577.780 555.619, 1590.684 553.637 C 1599.543 552.276, 1624.827 544.768, 1630.156 541.917 C 1631.837 541.017, 1632 539.429, 1632 523.965 L 1632 507 1628.854 507 C 1626.919 507, 1623.643 508.370, 1620.346 510.558 C 1613.825 514.887, 1607.197 517.874, 1595.995 521.533 C 1588.659 523.929, 1585.794 524.321, 1575 524.404 C 1564.653 524.483, 1561.272 524.114, 1555.371 522.258 C 1538.609 516.986, 1527.202 502.798, 1525.331 484.891 L 1524.715 479 1579.858 479 L 1635 479 1635 466.572 C 1635 451.634, 1633.659 441.190, 1630.428 430.963 C 1621.397 402.372, 1594.456 386.952, 1559 390.077 M 1845 390.075 C 1833.194 391.369, 1822.918 395.153, 1811.672 402.347 L 1806 405.975 1806 399.988 L 1806 394 1789.500 394 L 1773 394 1773 472.500 L 1773 551 1789.500 551 L 1806 551 1806.026 494.250 L 1806.052 437.500 1810.776 434.347 C 1836.519 417.166, 1862.278 417.062, 1869.402 434.111 C 1872.302 441.051, 1873 454.370, 1873 502.724 L 1873 551 1889.558 551 L 1906.116 551 1905.739 492.250 C 1905.323 427.573, 1905.438 428.855, 1898.808 415.301 C 1895.056 407.630, 1885.625 398.341, 1878 394.805 C 1868.584 390.438, 1856.928 388.767, 1845 390.075 M 1133 391.540 C 1127.225 392.342, 1118 394.010, 1112.500 395.249 L 1102.500 397.500 1102.225 413.750 L 1101.950 430 1105.938 430 C 1108.131 430, 1112.304 429.123, 1115.212 428.051 C 1141.392 418.403, 1171.981 417.647, 1183.411 426.364 C 1187.316 429.342, 1191 436.596, 1191 441.306 L 1191 444.633 1174.750 445.879 C 1134.875 448.935, 1117.759 453.916, 1104.302 466.378 C 1096.877 473.255, 1093.470 478.988, 1090.911 488.910 C 1085.798 508.736, 1090.936 528.162, 1104.697 541.035 C 1115.606 551.240, 1126.316 555.309, 1142.026 555.217 C 1158.654 555.119, 1173.587 551.026, 1184.711 543.517 C 1187.576 541.583, 1190.164 540, 1190.461 540 C 1190.757 540, 1191 542.475, 1191 545.500 L 1191 551 1207.500 551 L 1224 551 1223.983 493.750 C 1223.969 447.886, 1223.680 435.154, 1222.531 429.730 C 1218.561 410.997, 1205.064 398.192, 1183.747 392.934 C 1172.653 390.198, 1147.632 389.510, 1133 391.540 M 1297.651 391.525 C 1276.203 395.597, 1259.909 407.288, 1253.843 422.958 C 1250.599 431.336, 1250.165 444.916, 1252.861 453.687 C 1258.353 471.557, 1271.833 480.212, 1304.714 486.979 C 1321.647 490.465, 1332.234 493.452, 1335.699 495.722 C 1339.160 497.990, 1341 502.183, 1341 507.802 C 1341 517.192, 1334.508 522.662, 1320.517 525.062 C 1303.033 528.060, 1279.487 522.016, 1261.908 510.017 C 1258.249 507.520, 1254.883 506, 1253.011 506 L 1250 506 1250 523.555 L 1250 541.110 1255.750 543.660 C 1265.737 548.089, 1279.154 552.063, 1289.500 553.658 C 1302.476 555.658, 1322.326 554.946, 1333.300 552.088 C 1361.401 544.769, 1377.955 522.746, 1374.320 497.516 C 1372.304 483.521, 1364.971 473.350, 1352.053 466.633 C 1344.167 462.533, 1339.107 461.048, 1319.500 457.084 C 1294.394 452.007, 1289.111 449.761, 1285.644 442.687 C 1281.511 434.255, 1285.832 426.169, 1296.758 421.888 C 1304.879 418.707, 1321.231 418.669, 1332.289 421.806 C 1341.267 424.353, 1351.420 428.778, 1358.058 433.037 C 1360.685 434.723, 1364.038 436, 1365.838 436 L 1369 436 1369 419.517 L 1369 403.034 1364.250 400.631 C 1347.781 392.299, 1316.269 387.991, 1297.651 391.525 M 1660 472.500 L 1660 551 1677 551 L 1694 551 1694 496.712 L 1694 442.424 1700.250 438.343 C 1715.874 428.139, 1726.526 425.288, 1742.406 427.057 C 1746.858 427.553, 1753.088 428.256, 1756.250 428.619 L 1762 429.280 1762 412.747 C 1762 397.938, 1761.817 396.140, 1760.250 395.504 C 1759.287 395.114, 1752.650 394.568, 1745.500 394.290 C 1735.520 393.904, 1730.880 394.168, 1725.528 395.430 C 1717.460 397.333, 1706.671 402.309, 1699.500 407.437 L 1694.500 411.012 1694.211 402.506 L 1693.922 394 1676.961 394 L 1660 394 1660 472.500 M 1556 419.403 C 1548.003 421.199, 1541.914 424.454, 1536.585 429.784 C 1531.879 434.490, 1526.365 444.314, 1525.801 449 L 1525.500 451.500 1563.750 451.762 L 1602 452.024 1602 449.033 C 1602 443.427, 1597.865 433.129, 1593.728 428.428 C 1588.847 422.883, 1584.463 420.594, 1575.918 419.129 C 1567.818 417.740, 1563.118 417.804, 1556 419.403 M 1174.500 474.112 C 1137.258 477.231, 1123.082 484.773, 1123.028 501.500 C 1122.974 517.842, 1132.393 524.844, 1152.935 523.732 C 1164.622 523.099, 1170.470 521.222, 1181.778 514.473 L 1190.500 509.267 1190.773 491.134 L 1191.045 473 1187.773 473.137 C 1185.973 473.213, 1180 473.652, 1174.500 474.112 M 1295 583 L 1295 600 1313 600 L 1331 600 1331 583 L 1331 566 1313 566 L 1295 566 1295 583 M 930.269 640.750 C 930.690 719.595, 930.625 718.611, 936.447 734.651 C 945.944 760.816, 968.484 776.392, 1000.560 778.960 C 1040.087 782.124, 1068.045 769.185, 1081.505 741.500 C 1090.587 722.818, 1091 718.225, 1091 635.776 L 1091 568 1074.055 568 L 1057.109 568 1056.759 639.750 C 1056.447 703.566, 1056.221 712.137, 1054.715 717.257 C 1048.993 736.712, 1038.551 745.800, 1019.099 748.256 C 1003.987 750.163, 989.097 747.125, 980.163 740.311 C 975.915 737.070, 970.398 728.471, 967.889 721.176 C 964.716 711.955, 964.033 695.908, 964.016 630.250 L 964 568 946.941 568 L 929.882 568 930.269 640.750 M 1198.390 614.139 C 1189.496 615.114, 1176.644 619.746, 1168.283 624.988 C 1164.764 627.195, 1161.460 629, 1160.942 629 C 1160.424 629, 1160 626.525, 1160 623.500 L 1160 618 1143.500 618 L 1127 618 1127 696.500 L 1127 775 1143.500 775 L 1160 775 1160 718.506 L 1160 662.013 1164.250 658.911 C 1175.877 650.428, 1189.266 645.607, 1201.096 645.645 C 1214.514 645.688, 1220.469 649.348, 1224.746 660.184 C 1226.263 664.027, 1226.486 670.556, 1226.779 719.750 L 1227.109 775 1243.554 775 L 1260 775 1259.983 718.250 C 1259.963 655.254, 1259.815 653.461, 1253.541 640.248 C 1244.302 620.794, 1224.252 611.302, 1198.390 614.139 M 1421 614.098 C 1416.875 614.483, 1411.380 615.292, 1408.788 615.895 C 1396.842 618.675, 1383.205 627.236, 1374.979 637.121 C 1369.261 643.992, 1361.823 658.699, 1359.614 667.500 C 1353.474 691.970, 1355.838 722.042, 1365.431 741.500 C 1374.509 759.915, 1391.614 773.362, 1411.364 777.611 C 1420.062 779.482, 1437.355 779.695, 1445.500 778.032 C 1471.905 772.638, 1491.380 753.223, 1499.197 724.500 C 1501.094 717.530, 1501.374 713.926, 1501.374 696.500 C 1501.374 673.108, 1500.123 666.804, 1492.353 651.022 C 1485.979 638.075, 1475.313 627.225, 1462.988 621.147 C 1450.575 615.027, 1436.453 612.656, 1421 614.098 M 1600.810 614.153 C 1588.948 615.341, 1576.877 619.892, 1566.250 627.181 L 1562 630.096 1562 624.048 L 1562 618 1545.500 618 L 1529 618 1529 696.500 L 1529 775 1545.500 775 L 1562 775 1562 718.104 L 1562 661.208 1566.750 658.255 C 1582.843 648.251, 1589.756 645.751, 1601.500 645.689 C 1615.209 645.617, 1622.375 649.590, 1625.498 658.994 C 1628.345 667.565, 1628.985 680.155, 1628.992 727.750 L 1629 775 1645.565 775 L 1662.130 775 1661.757 716.750 C 1661.348 652.889, 1661.453 654.085, 1655.026 640.277 C 1651.867 633.489, 1644.647 625.090, 1638.769 621.363 C 1629.515 615.498, 1614.966 612.734, 1600.810 614.153 M 1296 696.500 L 1296 775 1313 775 L 1330 775 1330 696.500 L 1330 618 1313 618 L 1296 618 1296 696.500 M 1418.776 644.554 C 1398.748 649.409, 1388.847 669.071, 1390.353 701 C 1391.274 720.540, 1395.793 733.127, 1404.702 740.969 C 1410.437 746.017, 1414.853 748.011, 1423.144 749.294 C 1435.683 751.235, 1446.999 747.658, 1455.361 739.110 C 1464.367 729.904, 1468 717.656, 1468 696.500 C 1468 664.663, 1458.186 647.986, 1437.114 644.015 C 1430.186 642.710, 1425.861 642.837, 1418.776 644.554" stroke="none" fill="#040404" fill-rule="evenodd"/></svg>