<?xml version="1.0" standalone="no"?>
<!DOCTYPE svg PUBLIC "-//W3C//DTD SVG 20010904//EN"
 "http://www.w3.org/TR/2001/REC-SVG-20010904/DTD/svg10.dtd">
<svg version="1.0"
  xmlns="http://www.w3.org/2000/svg" width="962.000000pt" height="881.000000pt" viewBox="0 0 962.000000 881.000000" preserveAspectRatio="xMidYMid meet">

  <g transform="translate(0.000000,881.000000) scale(0.100000,-0.100000)" fill="#000000" stroke="none">
    <path d="M2363 5822 l-2363 -2 0 -149 0 -148 82 -73 c146 -128 230 -203 304
-270 249 -225 334 -304 334 -312 0 -4 438 -8 973 -8 l972 0 -107 -103 c-58
-56 -151 -142 -205 -192 -55 -49 -162 -149 -238 -222 -77 -72 -158 -145 -180
-161 -22 -16 -60 -52 -85 -80 -25 -29 -66 -66 -92 -83 -27 -17 -48 -34 -48
-38 0 -5 -21 -28 -47 -52 -25 -24 -58 -55 -72 -70 -14 -14 -55 -50 -91 -80
-35 -29 -92 -81 -125 -114 -33 -33 -115 -108 -180 -167 -66 -59 -189 -169
-273 -245 -84 -76 -185 -166 -225 -200 -40 -33 -95 -83 -122 -110 -62 -58
-132 -122 -254 -228 -51 -44 -144 -127 -207 -184 l-114 -104 0 -148 0 -149
568 0 568 0 34 32 c19 18 47 42 62 54 15 11 103 93 195 181 92 88 182 174 199
189 189 173 242 222 329 306 155 150 425 409 470 450 22 20 113 105 203 190
89 84 222 208 294 275 73 67 135 128 138 136 3 9 25 30 50 48 25 17 81 68 125
113 44 45 152 149 239 231 88 83 194 184 236 225 42 41 119 115 171 165 51 49
104 102 116 119 12 16 43 44 69 62 26 19 88 74 138 123 50 49 142 139 204 200
62 61 117 111 122 111 5 0 23 20 40 45 17 24 52 59 77 76 26 18 60 48 77 68
17 20 55 61 84 93 45 50 52 63 52 99 0 32 -6 47 -29 70 -16 16 -38 29 -48 30
-10 0 -27 1 -38 2 -11 1 -1083 1 -2382 -1z"/>
    <path d="M5170 5823 c-23 -9 -60 -45 -76 -75 -12 -23 -14 -290 -14 -1752 0
-1008 4 -1734 9 -1748 5 -13 25 -40 44 -60 l35 -38 2175 0 2174 0 27 21 c36
28 59 76 51 106 -3 14 -25 46 -48 71 -24 26 -56 65 -72 87 -40 55 -159 196
-226 269 -31 34 -74 84 -96 113 -44 56 -109 133 -193 228 -30 34 -82 95 -115
135 -33 40 -94 112 -136 159 -173 197 -301 348 -404 479 -33 43 -77 95 -98
116 l-39 39 30 23 c16 13 46 49 68 81 21 32 71 94 109 138 39 44 99 116 133
160 33 44 75 93 92 109 17 17 50 57 73 89 23 33 57 73 76 91 18 17 51 57 73
89 21 31 43 57 48 57 6 0 24 19 40 43 17 23 60 76 95 117 69 81 113 134 232
280 43 52 103 122 133 155 31 33 69 78 85 100 16 22 58 71 92 108 37 41 63 78
63 90 0 37 -34 89 -71 109 -32 17 -120 18 -2194 17 -1188 0 -2167 -3 -2175 -6z
m2548 -968 c2 -2 -16 -27 -42 -56 -25 -28 -46 -55 -46 -61 0 -9 -84 -103 -192
-215 l-50 -52 -621 -3 c-683 -4 -672 -5 -705 56 -12 24 -16 58 -17 146 0 106
2 118 25 152 14 21 32 40 40 42 19 7 1601 -2 1608 -9z m-849 -1384 l524 -1 57
-57 c31 -32 100 -111 154 -175 53 -65 101 -120 107 -123 5 -4 9 -10 9 -16 0
-14 -1595 -12 -1622 2 -34 18 -48 70 -48 179 0 178 23 200 215 195 44 -2 316
-3 604 -4z"/>
    <path d="M3365 3668 c-11 -6 -79 -67 -150 -137 -72 -69 -185 -178 -250 -241
-145 -139 -205 -205 -205 -225 0 -19 55 -80 324 -360 122 -126 281 -293 353
-370 72 -77 143 -151 158 -165 l27 -25 566 -2 c441 -2 572 0 592 10 28 14 46
63 36 101 -5 21 -313 348 -371 395 -11 9 -62 59 -113 111 -299 303 -743 757
-814 833 -87 90 -108 100 -153 75z"/>
  </g>
</svg>
